{
    "asset" : {
        "generator" : "Khronos glTF Blender I/O v1.5.17",
        "version" : "2.0"
    },
    "extensionsUsed" : [
        "KHR_materials_unlit"
    ],
    "scene" : 0,
    "scenes" : [
        {
            "name" : "Scene",
            "nodes" : [
                0,
                1,
                2,
                3,
                4,
                5,
                6,
                7,
                8,
                9
            ]
        }
    ],
    "nodes" : [
        {
            "name" : "Camera",
            "rotation" : [
                0.5264419913291931,
                0.4735186994075775,
                -0.503889799118042,
                0.4947059154510498
            ],
            "translation" : [
                16.386001586914062,
                0.6647010445594788,
                3.959078788757324
            ]
        },
        {
            "mesh" : 0,
            "name" : "boat",
            "rotation" : [
                0.4581647515296936,
                0.522347092628479,
                -0.5385954976081848,
                0.47660624980926514
            ],
            "scale" : [
                1.3308731317520142,
                1.3308731317520142,
                1.3308731317520142
            ],
            "translation" : [
                2.918732166290283,
                0.5074790120124817,
                0.1304282546043396
            ]
        },
        {
            "mesh" : 1,
            "name" : "Plane",
            "scale" : [
                13.211684226989746,
                18.191547393798828,
                19.973848342895508
            ],
            "translation" : [
                1.6362192630767822,
                0,
                0.05698211491107941
            ]
        },
        {
            "mesh" : 2,
            "name" : "PINEDE_ONE.001",
            "rotation" : [
                0.410246878862381,
                0.5690890550613403,
                -0.41968756914138794,
                0.5759318470954895
            ],
            "scale" : [
                7.369467258453369,
                7.046844005584717,
                7.046844005584717
            ],
            "translation" : [
                3.1282365322113037,
                0.006174201611429453,
                -0.5236461162567139
            ]
        },
        {
            "mesh" : 3,
            "name" : "sky",
            "rotation" : [
                0.4999999403953552,
                0.5,
                0.5000001192092896,
                -0.5000001192092896
            ],
            "scale" : [
                -50.31245040893555,
                -50.31245040893555,
                -50.31245040893555
            ],
            "translation" : [
                -85.93358612060547,
                9.631791114807129,
                -0.9890897274017334
            ]
        },
        {
            "mesh" : 4,
            "name" : "trees",
            "rotation" : [
                0.5,
                0.5,
                -0.5,
                0.4999999701976776
            ],
            "scale" : [
                12.213233947753906,
                12.213233947753906,
                2.9454169273376465
            ],
            "translation" : [
                -6.036709785461426,
                1.5129835605621338,
                2.152650833129883
            ]
        },
        {
            "mesh" : 5,
            "name" : "PINEDE_ONE.002",
            "rotation" : [
                0.32795077562332153,
                0.6201719045639038,
                -0.3363589942455292,
                0.6282497644424438
            ],
            "scale" : [
                7.369467258453369,
                7.046844005584717,
                7.046844005584717
            ],
            "translation" : [
                5.157779216766357,
                0.0439252071082592,
                -0.2037445306777954
            ]
        },
        {
            "mesh" : 6,
            "name" : "PINEDE_ONE.003",
            "rotation" : [
                0.32795077562332153,
                0.6201719045639038,
                -0.3363589942455292,
                0.6282497644424438
            ],
            "scale" : [
                7.369467258453369,
                7.046844005584717,
                7.046844005584717
            ],
            "translation" : [
                5.4477925300598145,
                -0.016457457095384598,
                -1.3881665468215942
            ]
        },
        {
            "mesh" : 7,
            "name" : "tree2",
            "rotation" : [
                0.5,
                0.5,
                -0.5,
                0.4999999701976776
            ],
            "scale" : [
                8.337089538574219,
                8.337089538574219,
                1.9662011861801147
            ],
            "translation" : [
                -2.879574775695801,
                0.930355966091156,
                2.683828115463257
            ]
        },
        {
            "mesh" : 8,
            "name" : "tree2.001",
            "rotation" : [
                0.5,
                0.5,
                -0.5,
                0.4999999701976776
            ],
            "scale" : [
                -9.93846607208252,
                9.714614868164062,
                2.5418434143066406
            ],
            "translation" : [
                -5.159276008605957,
                1.1188139915466309,
                6.565549850463867
            ]
        }
    ],
    "materials" : [
        {
            "alphaMode" : "BLEND",
            "doubleSided" : true,
            "extensions" : {
                "KHR_materials_unlit" : {}
            },
            "name" : "boat",
            "pbrMetallicRoughness" : {
                "baseColorTexture" : {
                    "index" : 0
                },
                "metallicFactor" : 0,
                "roughnessFactor" : 0.9
            }
        },
        {
            "doubleSided" : true,
            "extensions" : {
                "KHR_materials_unlit" : {}
            },
            "name" : "Material.001",
            "pbrMetallicRoughness" : {
                "baseColorTexture" : {
                    "index" : 1
                },
                "metallicFactor" : 0,
                "roughnessFactor" : 0.9
            }
        },
        {
            "alphaMode" : "BLEND",
            "doubleSided" : true,
            "extensions" : {
                "KHR_materials_unlit" : {}
            },
            "name" : "PINEDE_ONE",
            "pbrMetallicRoughness" : {
                "baseColorTexture" : {
                    "index" : 2
                },
                "metallicFactor" : 0,
                "roughnessFactor" : 0.9
            }
        },
        {
            "alphaMode" : "BLEND",
            "doubleSided" : true,
            "extensions" : {
                "KHR_materials_unlit" : {}
            },
            "name" : "sky",
            "pbrMetallicRoughness" : {
                "baseColorTexture" : {
                    "index" : 3
                },
                "metallicFactor" : 0,
                "roughnessFactor" : 0.9
            }
        },
        {
            "alphaMode" : "BLEND",
            "doubleSided" : true,
            "extensions" : {
                "KHR_materials_unlit" : {}
            },
            "name" : "trees",
            "pbrMetallicRoughness" : {
                "baseColorTexture" : {
                    "index" : 4
                },
                "metallicFactor" : 0,
                "roughnessFactor" : 0.9
            }
        },
        {
            "alphaMode" : "BLEND",
            "doubleSided" : true,
            "extensions" : {
                "KHR_materials_unlit" : {}
            },
            "name" : "tree2",
            "pbrMetallicRoughness" : {
                "baseColorTexture" : {
                    "index" : 5
                },
                "metallicFactor" : 0,
                "roughnessFactor" : 0.9
            }
        },
        {
            "alphaMode" : "BLEND",
            "doubleSided" : true,
            "extensions" : {
                "KHR_materials_unlit" : {}
            },
            "name" : "tree2.001",
            "pbrMetallicRoughness" : {
                "baseColorTexture" : {
                    "index" : 6
                },
                "metallicFactor" : 0,
                "roughnessFactor" : 0.9
            }
        }
    ],
    "meshes" : [
        {
            "name" : "boat",
            "primitives" : [
                {
                    "attributes" : {
                        "POSITION" : 0,
                        "NORMAL" : 1,
                        "TEXCOORD_0" : 2
                    },
                    "indices" : 3,
                    "material" : 0
                }
            ]
        },
        {
            "name" : "Plane",
            "primitives" : [
                {
                    "attributes" : {
                        "POSITION" : 4,
                        "NORMAL" : 5,
                        "TEXCOORD_0" : 6
                    },
                    "indices" : 7,
                    "material" : 1
                }
            ]
        },
        {
            "name" : "PINEDE_ONE.001",
            "primitives" : [
                {
                    "attributes" : {
                        "POSITION" : 8,
                        "NORMAL" : 9,
                        "TEXCOORD_0" : 10
                    },
                    "indices" : 11,
                    "material" : 2
                }
            ]
        },
        {
            "name" : "sky",
            "primitives" : [
                {
                    "attributes" : {
                        "POSITION" : 12,
                        "NORMAL" : 13,
                        "TEXCOORD_0" : 14
                    },
                    "indices" : 3,
                    "material" : 3
                }
            ]
        },
        {
            "name" : "trees",
            "primitives" : [
                {
                    "attributes" : {
                        "POSITION" : 15,
                        "NORMAL" : 16,
                        "TEXCOORD_0" : 17
                    },
                    "indices" : 3,
                    "material" : 4
                }
            ]
        },
        {
            "name" : "PINEDE_ONE.002",
            "primitives" : [
                {
                    "attributes" : {
                        "POSITION" : 18,
                        "NORMAL" : 19,
                        "TEXCOORD_0" : 20
                    },
                    "indices" : 21,
                    "material" : 2
                }
            ]
        },
        {
            "name" : "PINEDE_ONE.003",
            "primitives" : [
                {
                    "attributes" : {
                        "POSITION" : 22,
                        "NORMAL" : 23,
                        "TEXCOORD_0" : 24
                    },
                    "indices" : 21,
                    "material" : 2
                }
            ]
        },
        {
            "name" : "tree2",
            "primitives" : [
                {
                    "attributes" : {
                        "POSITION" : 25,
                        "NORMAL" : 26,
                        "TEXCOORD_0" : 27
                    },
                    "indices" : 3,
                    "material" : 5
                }
            ]
        },
        {
            "name" : "tree2.001",
            "primitives" : [
                {
                    "attributes" : {
                        "POSITION" : 28,
                        "NORMAL" : 29,
                        "TEXCOORD_0" : 30
                    },
                    "indices" : 3,
                    "material" : 6
                }
            ]
        }
    ],
    "textures" : [
        {
            "sampler" : 0,
            "source" : 0
        },
        {
            "sampler" : 1,
            "source" : 1
        },
        {
            "sampler" : 0,
            "source" : 2
        },
        {
            "sampler" : 0,
            "source" : 1
        },
        {
            "sampler" : 0,
            "source" : 3
        },
        {
            "sampler" : 0,
            "source" : 4
        },
        {
            "sampler" : 0,
            "source" : 4
        }
    ],
    "images" : [
        {
            "bufferView" : 4,
            "mimeType" : "image/png",
            "name" : "boat"
        },
        {
            "bufferView" : 9,
            "mimeType" : "image/png",
            "name" : "sky"
        },
        {
            "bufferView" : 14,
            "mimeType" : "image/jpeg",
            "name" : "PINEDE_ONE"
        },
        {
            "bufferView" : 21,
            "mimeType" : "image/png",
            "name" : "trees.png"
        },
        {
            "bufferView" : 32,
            "mimeType" : "image/png",
            "name" : "tree2.png"
        }
    ],
    "accessors" : [
        {
            "bufferView" : 0,
            "componentType" : 5126,
            "count" : 4,
            "max" : [
                1.3378995656967163,
                0,
                0.5
            ],
            "min" : [
                -1.3378995656967163,
                0,
                -0.5
            ],
            "type" : "VEC3"
        },
        {
            "bufferView" : 1,
            "componentType" : 5126,
            "count" : 4,
            "type" : "VEC3"
        },
        {
            "bufferView" : 2,
            "componentType" : 5126,
            "count" : 4,
            "type" : "VEC2"
        },
        {
            "bufferView" : 3,
            "componentType" : 5123,
            "count" : 6,
            "type" : "SCALAR"
        },
        {
            "bufferView" : 5,
            "componentType" : 5126,
            "count" : 1330,
            "max" : [
                1.0000001192092896,
                0.003742261789739132,
                1.0078197717666626
            ],
            "min" : [
                -1.0000001192092896,
                -0.0018520106095820665,
                -1.0000001192092896
            ],
            "type" : "VEC3"
        },
        {
            "bufferView" : 6,
            "componentType" : 5126,
            "count" : 1330,
            "type" : "VEC3"
        },
        {
            "bufferView" : 7,
            "componentType" : 5126,
            "count" : 1330,
            "type" : "VEC2"
        },
        {
            "bufferView" : 8,
            "componentType" : 5123,
            "count" : 6144,
            "type" : "SCALAR"
        },
        {
            "bufferView" : 10,
            "componentType" : 5126,
            "count" : 18,
            "max" : [
                0.3676993250846863,
                0,
                0.011381864547729492
            ],
            "min" : [
                -0.32719382643699646,
                0,
                -0.012465417385101318
            ],
            "type" : "VEC3"
        },
        {
            "bufferView" : 11,
            "componentType" : 5126,
            "count" : 18,
            "type" : "VEC3"
        },
        {
            "bufferView" : 12,
            "componentType" : 5126,
            "count" : 18,
            "type" : "VEC2"
        },
        {
            "bufferView" : 13,
            "componentType" : 5123,
            "count" : 45,
            "type" : "SCALAR"
        },
        {
            "bufferView" : 15,
            "componentType" : 5126,
            "count" : 4,
            "max" : [
                0.8888888955116272,
                0,
                0.5
            ],
            "min" : [
                -0.8888888955116272,
                0,
                -0.5
            ],
            "type" : "VEC3"
        },
        {
            "bufferView" : 16,
            "componentType" : 5126,
            "count" : 4,
            "type" : "VEC3"
        },
        {
            "bufferView" : 17,
            "componentType" : 5126,
            "count" : 4,
            "type" : "VEC2"
        },
        {
            "bufferView" : 18,
            "componentType" : 5126,
            "count" : 4,
            "max" : [
                0.8888888955116272,
                0,
                0.5
            ],
            "min" : [
                -0.8888888955116272,
                0,
                -0.5
            ],
            "type" : "VEC3"
        },
        {
            "bufferView" : 19,
            "componentType" : 5126,
            "count" : 4,
            "type" : "VEC3"
        },
        {
            "bufferView" : 20,
            "componentType" : 5126,
            "count" : 4,
            "type" : "VEC2"
        },
        {
            "bufferView" : 22,
            "componentType" : 5126,
            "count" : 9,
            "max" : [
                -0.17600448429584503,
                0,
                0.011381864547729492
            ],
            "min" : [
                -0.32719382643699646,
                0,
                -0.004607796669006348
            ],
            "type" : "VEC3"
        },
        {
            "bufferView" : 23,
            "componentType" : 5126,
            "count" : 9,
            "type" : "VEC3"
        },
        {
            "bufferView" : 24,
            "componentType" : 5126,
            "count" : 9,
            "type" : "VEC2"
        },
        {
            "bufferView" : 25,
            "componentType" : 5123,
            "count" : 24,
            "type" : "SCALAR"
        },
        {
            "bufferView" : 26,
            "componentType" : 5126,
            "count" : 9,
            "max" : [
                -0.17600448429584503,
                0,
                0.011381864547729492
            ],
            "min" : [
                -0.32719382643699646,
                0,
                -0.004607796669006348
            ],
            "type" : "VEC3"
        },
        {
            "bufferView" : 27,
            "componentType" : 5126,
            "count" : 9,
            "type" : "VEC3"
        },
        {
            "bufferView" : 28,
            "componentType" : 5126,
            "count" : 9,
            "type" : "VEC2"
        },
        {
            "bufferView" : 29,
            "componentType" : 5126,
            "count" : 4,
            "max" : [
                0.8888888955116272,
                0,
                0.5
            ],
            "min" : [
                -0.8888888955116272,
                0,
                -0.5
            ],
            "type" : "VEC3"
        },
        {
            "bufferView" : 30,
            "componentType" : 5126,
            "count" : 4,
            "type" : "VEC3"
        },
        {
            "bufferView" : 31,
            "componentType" : 5126,
            "count" : 4,
            "type" : "VEC2"
        },
        {
            "bufferView" : 33,
            "componentType" : 5126,
            "count" : 4,
            "max" : [
                0.8888888955116272,
                0,
                0.5
            ],
            "min" : [
                -0.8888888955116272,
                0,
                -0.5
            ],
            "type" : "VEC3"
        },
        {
            "bufferView" : 34,
            "componentType" : 5126,
            "count" : 4,
            "type" : "VEC3"
        },
        {
            "bufferView" : 35,
            "componentType" : 5126,
            "count" : 4,
            "type" : "VEC2"
        }
    ],
    "bufferViews" : [
        {
            "buffer" : 0,
            "byteLength" : 48,
            "byteOffset" : 0
        },
        {
            "buffer" : 0,
            "byteLength" : 48,
            "byteOffset" : 48
        },
        {
            "buffer" : 0,
            "byteLength" : 32,
            "byteOffset" : 96
        },
        {
            "buffer" : 0,
            "byteLength" : 12,
            "byteOffset" : 128
        },
        {
            "buffer" : 0,
            "byteLength" : 65835,
            "byteOffset" : 140
        },
        {
            "buffer" : 0,
            "byteLength" : 15960,
            "byteOffset" : 65976
        },
        {
            "buffer" : 0,
            "byteLength" : 15960,
            "byteOffset" : 81936
        },
        {
            "buffer" : 0,
            "byteLength" : 10640,
            "byteOffset" : 97896
        },
        {
            "buffer" : 0,
            "byteLength" : 12288,
            "byteOffset" : 108536
        },
        {
            "buffer" : 0,
            "byteLength" : 173132,
            "byteOffset" : 120824
        },
        {
            "buffer" : 0,
            "byteLength" : 216,
            "byteOffset" : 293956
        },
        {
            "buffer" : 0,
            "byteLength" : 216,
            "byteOffset" : 294172
        },
        {
            "buffer" : 0,
            "byteLength" : 144,
            "byteOffset" : 294388
        },
        {
            "buffer" : 0,
            "byteLength" : 90,
            "byteOffset" : 294532
        },
        {
            "buffer" : 0,
            "byteLength" : 63567,
            "byteOffset" : 294624
        },
        {
            "buffer" : 0,
            "byteLength" : 48,
            "byteOffset" : 358192
        },
        {
            "buffer" : 0,
            "byteLength" : 48,
            "byteOffset" : 358240
        },
        {
            "buffer" : 0,
            "byteLength" : 32,
            "byteOffset" : 358288
        },
        {
            "buffer" : 0,
            "byteLength" : 48,
            "byteOffset" : 358320
        },
        {
            "buffer" : 0,
            "byteLength" : 48,
            "byteOffset" : 358368
        },
        {
            "buffer" : 0,
            "byteLength" : 32,
            "byteOffset" : 358416
        },
        {
            "buffer" : 0,
            "byteLength" : 620174,
            "byteOffset" : 358448
        },
        {
            "buffer" : 0,
            "byteLength" : 108,
            "byteOffset" : 978624
        },
        {
            "buffer" : 0,
            "byteLength" : 108,
            "byteOffset" : 978732
        },
        {
            "buffer" : 0,
            "byteLength" : 72,
            "byteOffset" : 978840
        },
        {
            "buffer" : 0,
            "byteLength" : 48,
            "byteOffset" : 978912
        },
        {
            "buffer" : 0,
            "byteLength" : 108,
            "byteOffset" : 978960
        },
        {
            "buffer" : 0,
            "byteLength" : 108,
            "byteOffset" : 979068
        },
        {
            "buffer" : 0,
            "byteLength" : 72,
            "byteOffset" : 979176
        },
        {
            "buffer" : 0,
            "byteLength" : 48,
            "byteOffset" : 979248
        },
        {
            "buffer" : 0,
            "byteLength" : 48,
            "byteOffset" : 979296
        },
        {
            "buffer" : 0,
            "byteLength" : 32,
            "byteOffset" : 979344
        },
        {
            "buffer" : 0,
            "byteLength" : 469340,
            "byteOffset" : 979376
        },
        {
            "buffer" : 0,
            "byteLength" : 48,
            "byteOffset" : 1448716
        },
        {
            "buffer" : 0,
            "byteLength" : 48,
            "byteOffset" : 1448764
        },
        {
            "buffer" : 0,
            "byteLength" : 32,
            "byteOffset" : 1448812
        }
    ],
    "samplers" : [
        {
            "magFilter" : 9729,
            "minFilter" : 9987,
            "wrapS" : 33071,
            "wrapT" : 33071
        },
        {
            "magFilter" : 9729,
            "minFilter" : 9987
        }
    ],
    "buffers" : [
        {
            "byteLength" : 1448844,
            "uri" : "data:application/octet-stream;base64,"
        }
    ]
}
